<svg width="193" height="22" fill="none" xmlns="http://www.w3.org/2000/svg"><path d="M16.9 11.9c0 1.387-.3 2.62-.9 3.7-.587 1.067-1.44 1.9-2.56 2.5-1.107.6-2.413.9-3.92.9H4.18V4.86h5.34c1.52 0 2.833.293 3.94.88 1.107.587 1.953 1.413 2.54 2.48.6 1.067.9 2.293.9 3.68zm-7.68 4.04c1.333 0 2.367-.353 3.1-1.06.747-.707 1.12-1.7 1.12-2.98s-.373-2.273-1.12-2.98c-.733-.707-1.767-1.06-3.1-1.06H7.6v8.08h1.62zm19.388.48h-5.3l-.88 2.58h-3.6l5.18-14.04h3.94L33.128 19h-3.64l-.88-2.58zm-.88-2.6l-1.76-5.2-1.78 5.2h3.54zm17.89-8.96v2.72h-3.84V19h-3.44V7.58h-3.8V4.86h11.08zm11.2 11.56h-5.3l-.88 2.58h-3.6l5.18-14.04h3.94L61.339 19h-3.64l-.88-2.58zm-.88-2.6l-1.76-5.2-1.78 5.2h3.54zM81.233 19h-3.42l-5.72-8.68V19h-3.42V4.86h3.42l5.72 8.76V4.86h3.42V19zM91.314 4.64c1.333 0 2.54.313 3.62.94a6.665 6.665 0 012.58 2.58c.627 1.093.94 2.333.94 3.72s-.32 2.633-.96 3.74a6.807 6.807 0 01-2.58 2.6c-1.08.613-2.28.92-3.6.92-1.32 0-2.527-.307-3.62-.92a6.997 6.997 0 01-2.58-2.6c-.627-1.107-.94-2.353-.94-3.74s.313-2.627.94-3.72a6.847 6.847 0 012.58-2.58c1.093-.627 2.3-.94 3.62-.94zm0 3.18c-1.12 0-2.013.367-2.68 1.1-.653.72-.98 1.707-.98 2.96 0 1.24.327 2.227.98 2.96.667.733 1.56 1.1 2.68 1.1 1.107 0 1.993-.367 2.66-1.1.667-.733 1-1.72 1-2.96s-.333-2.227-1-2.96c-.653-.733-1.54-1.1-2.66-1.1zm20.221-2.96v2.72h-3.84V19h-3.44V7.58h-3.8V4.86h11.08zm16.666 0v2.72h-5.8v3.1h4.48v2.6h-4.48V19h-3.42V4.86h9.22zm9.476-.22c1.334 0 2.54.313 3.62.94a6.655 6.655 0 012.58 2.58c.627 1.093.94 2.333.94 3.72s-.32 2.633-.96 3.74a6.797 6.797 0 01-2.58 2.6c-1.08.613-2.28.92-3.6.92-1.32 0-2.526-.307-3.62-.92a6.997 6.997 0 01-2.58-2.6c-.626-1.107-.94-2.353-.94-3.74s.314-2.627.94-3.72a6.847 6.847 0 012.58-2.58c1.094-.627 2.3-.94 3.62-.94zm0 3.18c-1.12 0-2.013.367-2.68 1.1-.653.72-.98 1.707-.98 2.96 0 1.24.327 2.227.98 2.96.667.733 1.56 1.1 2.68 1.1 1.107 0 1.994-.367 2.66-1.1.667-.733 1-1.72 1-2.96s-.333-2.227-1-2.96c-.653-.733-1.54-1.1-2.66-1.1zm13.382-2.96v8.16c0 .933.206 1.647.62 2.14.426.493 1.04.74 1.84.74s1.406-.247 1.82-.74c.426-.493.64-1.207.64-2.14V4.86h3.42v8.16c0 1.333-.26 2.46-.78 3.38a5.14 5.14 0 01-2.14 2.06c-.894.453-1.907.68-3.04.68-1.134 0-2.134-.227-3-.68-.867-.453-1.547-1.14-2.04-2.06-.494-.92-.74-2.047-.74-3.38V4.86h3.4zM175.244 19h-3.42l-5.72-8.68V19h-3.42V4.86h3.42l5.72 8.76V4.86h3.42V19zm16.082-7.1c0 1.387-.3 2.62-.9 3.7-.587 1.067-1.44 1.9-2.56 2.5-1.107.6-2.414.9-3.92.9h-5.34V4.86h5.34c1.52 0 2.833.293 3.94.88 1.106.587 1.953 1.413 2.54 2.48.6 1.067.9 2.293.9 3.68zm-7.68 4.04c1.333 0 2.366-.353 3.1-1.06.746-.707 1.12-1.7 1.12-2.98s-.374-2.273-1.12-2.98c-.734-.707-1.767-1.06-3.1-1.06h-1.62v8.08h1.62z" fill="#CACACA"/><path d="M13.9 9.9c0 1.387-.3 2.62-.9 3.7-.587 1.067-1.44 1.9-2.56 2.5-1.107.6-2.413.9-3.92.9H1.18V2.86h5.34c1.52 0 2.833.293 3.94.88 1.107.587 1.953 1.413 2.54 2.48.6 1.067.9 2.293.9 3.68zm-7.68 4.04c1.333 0 2.367-.353 3.1-1.06.747-.707 1.12-1.7 1.12-2.98s-.373-2.273-1.12-2.98c-.733-.707-1.767-1.06-3.1-1.06H4.6v8.08h1.62zm19.388.48h-5.3l-.88 2.58h-3.6l5.18-14.04h3.94L30.128 17h-3.64l-.88-2.58zm-.88-2.6l-1.76-5.2-1.78 5.2h3.54zm17.89-8.96v2.72h-3.84V17h-3.44V5.58h-3.8V2.86h11.08zm11.2 11.56h-5.3l-.88 2.58h-3.6l5.18-14.04h3.94L58.339 17h-3.64l-.88-2.58zm-.88-2.6l-1.76-5.2-1.78 5.2h3.54zm72.263-8.96v2.72h-5.8v3.1h4.48v2.6h-4.48V17h-3.42V2.86h9.22zm9.476-.22c1.334 0 2.54.313 3.62.94a6.655 6.655 0 012.58 2.58c.627 1.093.94 2.333.94 3.72s-.32 2.633-.96 3.74a6.797 6.797 0 01-2.58 2.6c-1.08.613-2.28.92-3.6.92-1.32 0-2.526-.307-3.62-.92a6.997 6.997 0 01-2.58-2.6c-.626-1.107-.94-2.353-.94-3.74s.314-2.627.94-3.72a6.847 6.847 0 012.58-2.58c1.094-.627 2.3-.94 3.62-.94zm0 3.18c-1.12 0-2.013.367-2.68 1.1-.653.72-.98 1.707-.98 2.96 0 1.24.327 2.227.98 2.96.667.733 1.56 1.1 2.68 1.1 1.107 0 1.994-.367 2.66-1.1.667-.733 1-1.72 1-2.96s-.333-2.227-1-2.96c-.653-.733-1.54-1.1-2.66-1.1zm13.382-2.96v8.16c0 .933.206 1.647.62 2.14.426.493 1.04.74 1.84.74s1.406-.247 1.82-.74c.426-.493.64-1.207.64-2.14V2.86h3.42v8.16c0 1.333-.26 2.46-.78 3.38a5.14 5.14 0 01-2.14 2.06c-.894.453-1.907.68-3.04.68-1.134 0-2.134-.227-3-.68-.867-.453-1.547-1.14-2.04-2.06-.494-.92-.74-2.047-.74-3.38V2.86h3.4zM172.244 17h-3.42l-5.72-8.68V17h-3.42V2.86h3.42l5.72 8.76V2.86h3.42V17zm16.082-7.1c0 1.387-.3 2.62-.9 3.7-.587 1.067-1.44 1.9-2.56 2.5-1.107.6-2.414.9-3.92.9h-5.34V2.86h5.34c1.52 0 2.833.293 3.94.88 1.106.587 1.953 1.413 2.54 2.48.6 1.067.9 2.293.9 3.68zm-7.68 4.04c1.333 0 2.366-.353 3.1-1.06.746-.707 1.12-1.7 1.12-2.98s-.374-2.273-1.12-2.98c-.734-.707-1.767-1.06-3.1-1.06h-1.62v8.08h1.62z" fill="#5EAAA8"/><path d="M78.232 17h-3.42l-5.72-8.68V17h-3.42V2.86h3.42l5.72 8.76V2.86h3.42V17zM88.314 2.64c1.333 0 2.54.313 3.62.94a6.665 6.665 0 012.58 2.58c.627 1.093.94 2.333.94 3.72s-.32 2.633-.96 3.74a6.807 6.807 0 01-2.58 2.6c-1.08.613-2.28.92-3.6.92-1.32 0-2.527-.307-3.62-.92a6.997 6.997 0 01-2.58-2.6c-.627-1.107-.94-2.353-.94-3.74s.313-2.627.94-3.72a6.847 6.847 0 012.58-2.58c1.093-.627 2.3-.94 3.62-.94zm0 3.18c-1.12 0-2.013.367-2.68 1.1-.653.72-.98 1.707-.98 2.96 0 1.24.327 2.227.98 2.96.667.733 1.56 1.1 2.68 1.1 1.107 0 1.993-.367 2.66-1.1.667-.733 1-1.72 1-2.96s-.333-2.227-1-2.96c-.653-.733-1.54-1.1-2.66-1.1zm20.221-2.96v2.72h-3.84V17h-3.44V5.58h-3.8V2.86h11.08z" fill="#2F2F2F"/></svg>